<?xml version="1.0" encoding="UTF-8" standalone="no"?>
<!DOCTYPE svg PUBLIC "-//W3C//DTD SVG 1.1//EN" "http://www.w3.org/Graphics/SVG/1.1/DTD/svg11.dtd">
<!-- Generated by graphviz version 2.26.3 (20100126.1600)
 -->
<!-- Title: G Pages: 1 -->
<svg xmlns="http://www.w3.org/2000/svg" xmlns:xlink="http://www.w3.org/1999/xlink" width="458pt" height="184pt">
<g id="viewport" class="graph" transform="scale(1 1) rotate(0) translate(4 180)">
<title>G</title>
<polygon fill="white" stroke="white" points="-4,5 -4,-180 455,-180 455,5 -4,5"/>
<g id="graph2" class="cluster"><title>cluster_default</title>
<polyline fill="none" stroke="none" points="236,-8 430,-8 "/>
<path fill="none" stroke="none" d="M430,-8C436,-8 442,-14 442,-20"/>
<polyline fill="none" stroke="none" points="442,-20 442,-156 "/>
<path fill="none" stroke="none" d="M442,-156C442,-162 436,-168 430,-168"/>
<polyline fill="none" stroke="none" points="430,-168 236,-168 "/>
<path fill="none" stroke="none" d="M236,-168C230,-168 224,-162 224,-156"/>
<polyline fill="none" stroke="none" points="224,-156 224,-20 "/>
<path fill="none" stroke="none" d="M224,-20C224,-14 230,-8 236,-8"/>
</g>
<!-- _mf_admin_module_creator -->
<g id="node2" class="node"><title>_mf_admin_module_creator</title>
<a xlink:href="db_admin_mf_admin_module_creator.html" xlink:title="mf_admin_module_creator" target="_parent">
<polygon fill="none" stroke="black" points="416.887,-160 249.113,-160 249.113,-124 416.887,-124 416.887,-160"/>
<text text-anchor="middle" x="333" y="-138.7" font-family="Courier New" font-size="11.00">mf_admin_module_creator</text>
</a>
</g>
<!-- _oxAdminView -->
<g id="node6" class="node"><title>_oxAdminView</title>
<ellipse fill="none" stroke="black" cx="80" cy="-142" rx="73.798" ry="18"/>
<text text-anchor="middle" x="80" y="-137.8" font-family="Times Roman,serif" font-size="14.00" fill="gray">\\oxAdminView</text>
</g>
<!-- _mf_admin_module_creator&#45;&gt;_oxAdminView -->
<g id="edge3" class="edge"><title>_mf_admin_module_creator-&gt;_oxAdminView</title>
<path fill="none" stroke="black" d="M249.106,-142C221.939,-142 191.803,-142 164.586,-142"/>
<polygon fill="none" stroke="black" points="164.31,-138.5 154.31,-142 164.31,-145.5 164.31,-138.5"/>
</g>
<!-- _mf_admin_module_creator_main -->
<g id="node3" class="node"><title>_mf_admin_module_creator_main</title>
<a xlink:href="db_admin_mf_admin_module_creator_main.html" xlink:title="mf_admin_module_creator_main" target="_parent">
<polygon fill="none" stroke="black" points="432.885,-106 233.115,-106 233.115,-70 432.885,-70 432.885,-106"/>
<text text-anchor="middle" x="333" y="-84.7" font-family="Courier New" font-size="11.00">mf_admin_module_creator_main</text>
</a>
</g>
<!-- _oxAdminDetails -->
<g id="node8" class="node"><title>_oxAdminDetails</title>
<ellipse fill="none" stroke="black" cx="80" cy="-88" rx="80.2362" ry="18"/>
<text text-anchor="middle" x="80" y="-83.8" font-family="Times Roman,serif" font-size="14.00" fill="gray">\\oxAdminDetails</text>
</g>
<!-- _mf_admin_module_creator_main&#45;&gt;_oxAdminDetails -->
<g id="edge5" class="edge"><title>_mf_admin_module_creator_main-&gt;_oxAdminDetails</title>
<path fill="none" stroke="black" d="M232.281,-88C211.769,-88 190.313,-88 170.195,-88"/>
<polygon fill="none" stroke="black" points="170.124,-84.5001 160.124,-88 170.124,-91.5001 170.124,-84.5001"/>
</g>
<!-- _mfMenuXmlBuilder -->
<g id="node4" class="node"><title>_mfMenuXmlBuilder</title>
<a xlink:href="db_core_mfmenuxmlbuilder.html" xlink:title="mfMenuXmlBuilder" target="_parent">
<polygon fill="none" stroke="black" points="393.791,-52 272.209,-52 272.209,-16 393.791,-16 393.791,-52"/>
<text text-anchor="middle" x="333" y="-30.7" font-family="Courier New" font-size="11.00">mfMenuXmlBuilder</text>
</a>
</g>
</g>
<script xlink:href="js/SVGPan.js"/></svg>
